<?xml version="1.0" encoding="utf-8"?>
<svg xmlns="http://www.w3.org/2000/svg" xmlns:xlink="http://www.w3.org/1999/xlink">
    <symbol id="first-steps" viewBox="0 0 20 25" fill="none" xmlns="http://www.w3.org/2000/svg">
        <path d="M17.5 24.9993H2.5C1.90326 24.9993 1.33097 24.7623 0.90901 24.3403C0.487053 23.9184 0.25 23.3461 0.25 22.7493V6.99932C0.25 6.40258 0.487053 5.83029 0.90901 5.40833C1.33097 4.98637 1.90326 4.74932 2.5 4.74932H5.56225C5.93275 2.60582 7.7785 0.99707 10 0.99707C12.2215 0.99707 14.0665 2.60657 14.434 4.72307L14.4377 4.75007H17.5C18.0967 4.75007 18.669 4.98712 19.091 5.40908C19.5129 5.83104 19.75 6.40333 19.75 7.00007V22.7501C19.75 23.3468 19.5129 23.9191 19.091 24.3411C18.669 24.763 18.0967 25.0001 17.5 25.0001V24.9993ZM2.5 6.24932C2.30109 6.24932 2.11032 6.32834 1.96967 6.46899C1.82902 6.60964 1.75 6.80041 1.75 6.99932V22.7493C1.75 22.9482 1.82902 23.139 1.96967 23.2797C2.11032 23.4203 2.30109 23.4993 2.5 23.4993H17.5C17.6989 23.4993 17.8897 23.4203 18.0303 23.2797C18.171 23.139 18.25 22.9482 18.25 22.7493V6.99932C18.25 6.80041 18.171 6.60964 18.0303 6.46899C17.8897 6.32834 17.6989 6.24932 17.5 6.24932H13.75C13.5511 6.24932 13.3603 6.1703 13.2197 6.02965C13.079 5.889 13 5.69823 13 5.49932C13 4.70367 12.6839 3.94061 12.1213 3.378C11.5587 2.81539 10.7956 2.49932 10 2.49932C9.20435 2.49932 8.44129 2.81539 7.87868 3.378C7.31607 3.94061 7 4.70367 7 5.49932C7 5.69823 6.92098 5.889 6.78033 6.02965C6.63968 6.1703 6.44891 6.24932 6.25 6.24932H2.5ZM15.4998 19.7493C15.4998 19.5504 15.4207 19.3596 15.2801 19.219C15.1394 19.0783 14.9487 18.9993 14.7498 18.9993H9.25C9.05109 18.9993 8.86032 19.0783 8.71967 19.219C8.57902 19.3596 8.5 19.5504 8.5 19.7493C8.5 19.9482 8.57902 20.139 8.71967 20.2797C8.86032 20.4203 9.05109 20.4993 9.25 20.4993H14.7498C14.9487 20.4993 15.1394 20.4203 15.2801 20.2797C15.4207 20.139 15.4998 19.9482 15.4998 19.7493ZM15.4998 15.2493C15.4998 15.0504 15.4207 14.8596 15.2801 14.719C15.1394 14.5783 14.9487 14.4993 14.7498 14.4993H9.25C9.05109 14.4993 8.86032 14.5783 8.71967 14.719C8.57902 14.8596 8.5 15.0504 8.5 15.2493C8.5 15.4482 8.57902 15.639 8.71967 15.7797C8.86032 15.9203 9.05109 15.9993 9.25 15.9993H14.7498C14.9487 15.9993 15.1394 15.9203 15.2801 15.7797C15.4207 15.639 15.4998 15.4482 15.4998 15.2493ZM15.4998 10.7493C15.4998 10.5504 15.4207 10.3596 15.2801 10.219C15.1394 10.0783 14.9487 9.99932 14.7498 9.99932H9.25C9.05109 9.99932 8.86032 10.0783 8.71967 10.219C8.57902 10.3596 8.5 10.5504 8.5 10.7493C8.5 10.9482 8.57902 11.139 8.71967 11.2797C8.86032 11.4203 9.05109 11.4993 9.25 11.4993H14.7498C14.9487 11.4993 15.1394 11.4203 15.2801 11.2797C15.4207 11.139 15.4998 10.9482 15.4998 10.7493ZM6.25 9.49907C6.00272 9.49907 5.761 9.5724 5.5554 9.70978C5.3498 9.84715 5.18955 10.0424 5.09492 10.2709C5.00029 10.4993 4.97553 10.7507 5.02377 10.9932C5.07201 11.2358 5.19109 11.4585 5.36594 11.6334C5.54079 11.8082 5.76356 11.9273 6.00609 11.9755C6.24861 12.0238 6.5 11.999 6.72845 11.9044C6.9569 11.8098 7.15217 11.6495 7.28955 11.4439C7.42692 11.2383 7.50025 10.9966 7.50025 10.7493C7.50025 10.0593 6.94075 9.49907 6.25 9.49907ZM6.25 13.9991C6.00272 13.9991 5.761 14.0724 5.5554 14.2098C5.3498 14.3472 5.18955 14.5424 5.09492 14.7709C5.00029 14.9993 4.97553 15.2507 5.02377 15.4932C5.07201 15.7358 5.19109 15.9585 5.36594 16.1334C5.54079 16.3082 5.76356 16.4273 6.00609 16.4755C6.24861 16.5238 6.5 16.499 6.72845 16.4044C6.9569 16.3098 7.15217 16.1495 7.28955 15.9439C7.42692 15.7383 7.50025 15.4966 7.50025 15.2493C7.50025 14.5593 6.94075 13.9991 6.25 13.9991ZM6.25 18.4991C6.00272 18.4991 5.761 18.5724 5.5554 18.7098C5.3498 18.8472 5.18955 19.0424 5.09492 19.2709C5.00029 19.4993 4.97553 19.7507 5.02377 19.9932C5.07201 20.2358 5.19109 20.4585 5.36594 20.6334C5.54079 20.8082 5.76356 20.9273 6.00609 20.9755C6.24861 21.0238 6.5 20.999 6.72845 20.9044C6.9569 20.8098 7.15217 20.6495 7.28955 20.4439C7.42692 20.2383 7.50025 19.9966 7.50025 19.7493C7.50025 19.0593 6.94075 18.4991 6.25 18.4991ZM10 3.74957C9.75272 3.74957 9.511 3.8229 9.3054 3.96028C9.0998 4.09765 8.93955 4.29292 8.84492 4.52137C8.75029 4.74982 8.72553 5.00121 8.77377 5.24373C8.82201 5.48626 8.94109 5.70903 9.11594 5.88388C9.29079 6.05873 9.51356 6.17781 9.75609 6.22605C9.99861 6.27429 10.25 6.24953 10.4785 6.1549C10.7069 6.06027 10.9022 5.90002 11.0395 5.69442C11.1769 5.48882 11.2502 5.2471 11.2502 4.99982C11.2502 4.30982 10.6908 3.74957 10 3.74957Z" fill="#976828"/>
    </symbol>
    <symbol id="administrator" viewBox="0 0 25 24" fill="none" xmlns="http://www.w3.org/2000/svg">
        <path d="M9.07143 0C6.4678 0 4.35714 2.11066 4.35714 4.71429C4.35714 7.31791 6.4678 9.42857 9.07143 9.42857C11.6751 9.42857 13.7857 7.31791 13.7857 4.71429C13.7857 2.11066 11.6751 0 9.07143 0ZM9.07143 1.71429C10.7283 1.71429 12.0714 3.05743 12.0714 4.71429C12.0714 6.37114 10.7283 7.71429 9.07143 7.71429C7.41457 7.71429 6.07143 6.37114 6.07143 4.71429C6.07143 3.05743 7.41457 1.71429 9.07143 1.71429ZM9.07143 10.2857C9.69608 10.2857 10.3192 10.3533 10.93 10.4873C11.3924 10.5888 11.685 11.0459 11.5835 11.5083C11.4821 11.9706 11.025 12.2632 10.5626 12.1618C10.0724 12.0543 9.57248 12 9.07143 12C5.39909 12 2.40101 14.8868 2.22268 18.5149L2.21429 18.8571V20.5714H8.21429C8.63507 20.5714 8.98504 20.8746 9.05762 21.2745L9.07143 21.4286C9.07143 21.8494 8.76821 22.1993 8.36836 22.2719L8.21429 22.2857H1.35714C0.936355 22.2857 0.586386 21.9825 0.51381 21.5826L0.5 21.4286V18.8571C0.5 14.1233 4.33756 10.2857 9.07143 10.2857Z" fill="#8B0E50"/>
        <path fill-rule="evenodd" clip-rule="evenodd" d="M15.9977 15.3098C16.3962 14.9113 16.9365 14.6875 17.5 14.6875C18.0635 14.6875 18.6038 14.9113 19.0023 15.3098C19.4007 15.7082 19.6245 16.2486 19.6245 16.812C19.6245 17.3755 19.4007 17.9158 19.0023 18.3143C18.6038 18.7127 18.0635 18.9365 17.5 18.9365C16.9365 18.9365 16.3962 18.7127 15.9977 18.3143C15.5993 17.9158 15.3755 17.3755 15.3755 16.812C15.3755 16.2486 15.5993 15.7082 15.9977 15.3098ZM17.5 16.1875C17.3344 16.1875 17.1755 16.2533 17.0584 16.3704C16.9413 16.4875 16.8755 16.6464 16.8755 16.812C16.8755 16.9776 16.9413 17.1365 17.0584 17.2536C17.1755 17.3707 17.3344 17.4365 17.5 17.4365C17.6656 17.4365 17.8245 17.3707 17.9416 17.2536C18.0587 17.1365 18.1245 16.9776 18.1245 16.812C18.1245 16.6464 18.0587 16.4875 17.9416 16.3704C17.8245 16.2533 17.6656 16.1875 17.5 16.1875Z" fill="#8B0E50"/>
        <path fill-rule="evenodd" clip-rule="evenodd" d="M17.7798 11.4691C17.6987 11.4091 17.6003 11.3767 17.4994 11.377C17.3985 11.3772 17.3003 11.4099 17.2194 11.4703C17.1386 11.5307 17.0793 11.6155 17.0504 11.7122L17.0492 11.7163L16.6444 13.0451C16.6443 13.0456 16.6441 13.0461 16.644 13.0466C16.5225 13.4494 16.2526 13.791 15.8888 14.0024C15.5245 14.214 15.0934 14.2792 14.6829 14.1847L13.3339 13.8723C13.2349 13.8504 13.1315 13.8605 13.0387 13.9013C12.9454 13.9423 12.8676 14.0121 12.8168 14.1005C12.766 14.189 12.7449 14.2913 12.7565 14.3926C12.7682 14.4939 12.8119 14.5888 12.8814 14.6634L12.8824 14.6645L13.8295 15.6855C14.1129 15.9934 14.2701 16.3966 14.2701 16.815C14.2701 17.2334 14.1129 17.6366 13.8295 17.9446L13.8274 17.9468L12.8814 18.9666C12.8119 19.0412 12.7682 19.1361 12.7565 19.2374C12.7449 19.3387 12.766 19.441 12.8168 19.5295C12.8676 19.6179 12.9454 19.6877 13.0387 19.7287C13.1315 19.7695 13.2348 19.7796 13.3337 19.7577L14.6814 19.4447L14.6843 19.444C15.0944 19.3505 15.5247 19.416 15.8884 19.6273C16.2515 19.8382 16.5213 20.1788 16.6434 20.5805C16.6436 20.5812 16.6438 20.5819 16.644 20.5825L17.0548 21.9153C17.0839 22.012 17.1433 22.0967 17.2243 22.157C17.3053 22.2172 17.4035 22.2497 17.5044 22.2497C17.6054 22.2497 17.7036 22.2172 17.7846 22.157C17.8656 22.0967 17.925 22.012 17.9541 21.9153L17.9549 21.9128L18.3592 20.5854C18.3595 20.5846 18.3597 20.5838 18.3599 20.583C18.4803 20.1817 18.7479 19.8406 19.1092 19.6282C19.4711 19.4154 19.9002 19.3475 20.3102 19.4381L20.318 19.4399L21.6656 19.753C21.7645 19.7748 21.8678 19.7647 21.9606 19.7239C22.054 19.6829 22.1317 19.6131 22.1825 19.5247C22.2333 19.4363 22.2544 19.3339 22.2428 19.2326C22.2312 19.1313 22.1874 19.0364 22.1179 18.9618L21.1719 17.942L21.1698 17.9398C20.8865 17.6318 20.7292 17.2287 20.7292 16.8102C20.7292 16.3918 20.8865 15.9886 21.1698 15.6807L21.1719 15.6784L22.1179 14.6587C22.1874 14.584 22.2312 14.4891 22.2428 14.3878C22.2544 14.2865 22.2333 14.1842 22.1825 14.0958C22.1317 14.0073 22.054 13.9375 21.9606 13.8965C21.8678 13.8557 21.7644 13.8456 21.6654 13.8675C21.6649 13.8676 21.6643 13.8678 21.6638 13.8679L20.3164 14.1799C19.9059 14.2744 19.4748 14.2092 19.1105 13.9976C18.7467 13.7862 18.4768 13.4446 18.3553 13.0418C18.3552 13.0413 18.355 13.0408 18.3549 13.0403L17.9498 11.7104C17.9205 11.6138 17.8609 11.5292 17.7798 11.4691ZM17.4963 9.87696C17.9197 9.87609 18.3321 10.0117 18.6723 10.2636C19.0124 10.5154 19.2624 10.87 19.3852 11.2749C19.3852 11.2751 19.3851 11.2747 19.3852 11.2749L19.7914 12.6085C19.803 12.6473 19.829 12.6802 19.8641 12.7006C19.899 12.7209 19.9403 12.7272 19.9797 12.7182C19.9798 12.7182 19.9796 12.7182 19.9797 12.7182L21.3339 12.4046C21.746 12.3117 22.1771 12.3533 22.5639 12.5232C22.9506 12.6931 23.2728 12.9824 23.4832 13.3487C23.6936 13.7151 23.7812 14.1392 23.733 14.5589C23.6849 14.9783 23.5038 15.3712 23.2162 15.6803C23.216 15.6805 23.2164 15.6801 23.2162 15.6803L22.2736 16.6963C22.2734 16.6965 22.2738 16.6961 22.2736 16.6963C22.2454 16.7273 22.2292 16.7683 22.2292 16.8102C22.2292 16.8521 22.2448 16.8925 22.273 16.9235C22.2732 16.9237 22.2728 16.9232 22.273 16.9235L23.2156 17.9395C23.2157 17.9397 23.2154 17.9393 23.2156 17.9395C23.5032 18.2486 23.6849 18.6421 23.733 19.0616C23.7812 19.4813 23.6936 19.9054 23.4832 20.2717C23.2728 20.6381 22.9506 20.9274 22.5639 21.0973C22.1771 21.2672 21.746 21.3087 21.3339 21.2158L21.3291 21.2148L19.984 20.9023C19.9448 20.8942 19.904 20.9009 19.8695 20.9212C19.8343 20.9419 19.8083 20.9752 19.7966 21.0143L19.7954 21.0184L19.3906 22.3473C19.3904 22.3477 19.3903 22.3482 19.3902 22.3486C19.2681 22.7535 19.019 23.1083 18.6796 23.3607C18.3399 23.6133 17.9278 23.7497 17.5044 23.7497C17.0811 23.7497 16.669 23.6133 16.3292 23.3607C15.9903 23.1086 15.7413 22.7543 15.6191 22.35L15.2084 21.0172C15.1965 20.978 15.1703 20.9448 15.1349 20.9243C15.0998 20.9039 15.0583 20.8975 15.0187 20.9063C15.0184 20.9063 15.019 20.9062 15.0187 20.9063L13.6654 21.2206C13.2533 21.3135 12.8222 21.272 12.4354 21.1021C12.0487 20.9322 11.7265 20.6428 11.5161 20.2765C11.3057 19.9102 11.2181 19.4861 11.2663 19.0664C11.3144 18.6469 11.4956 18.2539 11.7832 17.9449C11.7834 17.9447 11.783 17.9451 11.7832 17.9449L12.7257 16.9289C12.7259 16.9287 12.7255 16.9292 12.7257 16.9289C12.7539 16.898 12.7701 16.8569 12.7701 16.815C12.7701 16.7731 12.7545 16.7327 12.7263 16.7018C12.7261 16.7015 12.7265 16.702 12.7263 16.7018L11.7837 15.6857C11.7835 15.6855 11.7839 15.6859 11.7837 15.6857C11.4961 15.3767 11.3144 14.9831 11.2663 14.5636C11.2181 14.1439 11.3057 13.7198 11.5161 13.3535C11.7265 12.9872 12.0487 12.6978 12.4354 12.5279C12.8222 12.358 13.2533 12.3165 13.6654 12.4094L13.6697 12.4104L15.0193 12.7229C15.0194 12.7229 15.0191 12.7229 15.0193 12.7229C15.0586 12.7319 15.1003 12.7257 15.1353 12.7054C15.1703 12.685 15.1963 12.6521 15.2079 12.6133L15.2087 12.6107L15.6138 11.281C15.7351 10.8762 15.9834 10.5212 16.3219 10.2684C16.6612 10.0151 17.073 9.87782 17.4963 9.87696Z" fill="#8B0E50"/>
    </symbol>
    <symbol id="content-editor" viewBox="0 0 24 24" fill="none" xmlns="http://www.w3.org/2000/svg">
        <path d="M11.25 24C11.1386 24 11.0286 23.9751 10.928 23.9273C10.8274 23.8795 10.7387 23.8098 10.6684 23.7234C10.5981 23.637 10.5479 23.536 10.5215 23.4278C10.4951 23.3196 10.4931 23.2068 10.5157 23.0978L10.515 23.1023L11.265 19.3523C11.2941 19.2074 11.3653 19.0743 11.4698 18.9698L19.0725 11.34C19.5893 10.821 20.3048 10.5 21.0953 10.5C21.8858 10.5 22.6005 10.821 23.118 11.34L23.1353 11.3573C23.4068 11.6226 23.6225 11.9395 23.7696 12.2895C23.9167 12.6395 23.9922 13.0154 23.9918 13.395C23.9928 14.1256 23.7124 14.8285 23.2087 15.3578L23.2103 15.3563C23.1509 15.416 23.0844 15.4681 23.0123 15.5115L23.0078 15.5138L15.5205 23.0138C15.4167 23.1179 15.2844 23.1889 15.1403 23.2178L15.1357 23.2185L11.3985 23.9685C11.3515 23.9829 11.3033 23.9929 11.2545 23.9985H11.2515L11.25 24ZM12.69 19.8698L12.2048 22.2923L14.6175 21.81L22.065 14.34C22.1093 14.2949 22.1595 14.2561 22.2142 14.2245L22.2172 14.223C22.4243 13.9593 22.5244 13.6272 22.4977 13.293C22.4711 12.9588 22.3195 12.6468 22.0732 12.4193L22.0725 12.4185L22.0447 12.3885C21.7895 12.1375 21.4451 11.9979 21.0871 12.0001C20.7291 12.0024 20.3866 12.1463 20.1345 12.4005L12.69 19.8698ZM8.25 24H3.74625C3.56079 24.0001 3.38187 23.9314 3.24405 23.8073C3.10624 23.6832 3.01929 23.5125 3 23.328V23.325L2.32275 16.5H0.75C0.551088 16.5 0.360322 16.421 0.21967 16.2803C0.0790176 16.1397 0 15.9489 0 15.75V13.5C0 11.9087 0.632141 10.3826 1.75736 9.25736C2.88258 8.13214 4.4087 7.5 6 7.5C7.5913 7.5 9.11742 8.13214 10.2426 9.25736C11.3679 10.3826 12 11.9087 12 13.5V15.75C12 15.9489 11.921 16.1397 11.7803 16.2803C11.6397 16.421 11.4489 16.5 11.25 16.5H9.67725L9 23.325C8.96025 23.706 8.6415 24 8.25375 24H8.25ZM4.42725 22.5H7.572L8.24925 15.675C8.289 15.294 8.60775 15 8.9955 15H10.4992V13.5C10.4992 12.9091 10.3829 12.3239 10.1567 11.7779C9.93056 11.232 9.59909 10.7359 9.18123 10.318C8.76337 9.90016 8.26729 9.56869 7.72133 9.34254C7.17536 9.1164 6.5902 9 5.99925 9C5.4083 9 4.82314 9.1164 4.27717 9.34254C3.73121 9.56869 3.23513 9.90016 2.81727 10.318C2.39941 10.7359 2.06794 11.232 1.84179 11.7779C1.61565 12.3239 1.49925 12.9091 1.49925 13.5V15H3.003C3.18846 14.9999 3.36738 15.0686 3.5052 15.1927C3.64301 15.3168 3.72996 15.4875 3.74925 15.672V15.675L4.42725 22.5ZM6 7.5C5.25832 7.5 4.5333 7.28007 3.91661 6.86801C3.29993 6.45596 2.81928 5.87029 2.53545 5.18506C2.25162 4.49984 2.17736 3.74584 2.32206 3.01841C2.46675 2.29098 2.8239 1.6228 3.34835 1.09835C3.8728 0.573904 4.54098 0.216751 5.26841 0.0720569C5.99584 -0.0726377 6.74984 0.00162482 7.43506 0.285453C8.12029 0.569282 8.70596 1.04993 9.11801 1.66661C9.53007 2.2833 9.75 3.00832 9.75 3.75C9.75 4.74456 9.35491 5.69839 8.65165 6.40165C7.94839 7.10491 6.99456 7.5 6 7.5ZM6 1.5C5.55499 1.5 5.11998 1.63196 4.74997 1.87919C4.37996 2.12643 4.09157 2.47783 3.92127 2.88896C3.75097 3.3001 3.70642 3.7525 3.79323 4.18895C3.88005 4.62541 4.09434 5.02632 4.40901 5.34099C4.72368 5.65566 5.12459 5.86995 5.56105 5.95677C5.9975 6.04359 6.4499 5.99903 6.86104 5.82873C7.27217 5.65843 7.62357 5.37005 7.87081 5.00003C8.11804 4.63002 8.25 4.19501 8.25 3.75C8.25 3.15326 8.01295 2.58097 7.59099 2.15901C7.16903 1.73705 6.59674 1.5 6 1.5Z" fill="#003E4A"/>
    </symbol>
    <svg id="store-manager" viewBox="0 0 25 24" fill="none" xmlns="http://www.w3.org/2000/svg">
        <g clip-path="url(#clip0_1619_5021)">
            <path d="M15.5 22H9.5C10.359 20.8303 10.8781 19.4461 11 18H14C14.1243 19.4455 14.6432 20.8292 15.5 22Z" stroke="#5A5A5D" stroke-width="1.25" stroke-linecap="round" stroke-linejoin="round"/>
            <path d="M7.5 22H17.5" stroke="#5A5A5D" stroke-width="1.25" stroke-linecap="round" stroke-linejoin="round"/>
            <path d="M1.5 15H23.5" stroke="#5A5A5D" stroke-width="1.25" stroke-linecap="round" stroke-linejoin="round"/>
            <path d="M23.5 16.958C23.5017 17.2277 23.3982 17.4874 23.2115 17.682C23.0248 17.8765 22.7695 17.9906 22.5 18H2.50002C2.2305 17.9906 1.97526 17.8765 1.78853 17.682C1.6018 17.4874 1.4983 17.2277 1.50002 16.958V3C1.50002 2.73478 1.60538 2.48043 1.79291 2.29289C1.98045 2.10536 2.2348 2 2.50002 2H22.5C22.7652 2 23.0196 2.10536 23.2071 2.29289C23.3947 2.48043 23.5 2.73478 23.5 3V16.958Z" stroke="#5A5A5D" stroke-width="1.25" stroke-linecap="round" stroke-linejoin="round"/>
            <path d="M9.5 8.00042L10.767 5.48242" stroke="#5A5A5D" stroke-width="1.25" stroke-linecap="round" stroke-linejoin="round"/>
            <path d="M14.233 5.48242L15.5 8.00042" stroke="#5A5A5D" stroke-width="1.25" stroke-linecap="round" stroke-linejoin="round"/>
            <path d="M16.5 8H8.5L9.264 11.482C9.28445 11.6329 9.36155 11.7705 9.47966 11.8667C9.59777 11.9628 9.74804 12.0105 9.9 12H15.1C15.252 12.0105 15.4022 11.9628 15.5203 11.8667C15.6384 11.7705 15.7155 11.6329 15.736 11.482L16.5 8Z" stroke="#5A5A5D" stroke-width="1.25" stroke-linecap="round" stroke-linejoin="round"/>
        </g>
        <defs>
            <clipPath id="clip0_1619_5021">
                <rect width="24" height="24" fill="white" transform="translate(0.5)"/>
            </clipPath>
        </defs>
    </svg>

    <symbol id="toggler" viewBox="0 0 13 13" xmlns="http://www.w3.org/2000/svg">
        <path d="M6.00001 9.62487C5.90153 9.62496 5.80401 9.60555 5.71307 9.56777C5.62213 9.52999 5.53956 9.47458 5.47013 9.40475L0.108758 4.01487C0.0393029 3.94408 0.000650096 3.8487 0.00122707 3.74953C0.00180405 3.65036 0.041564 3.55544 0.111838 3.48546C0.182113 3.41548 0.277202 3.37612 0.376376 3.37597C0.475549 3.37581 0.570763 3.41487 0.641258 3.48462L6.00001 8.8745L11.3588 3.48462C11.3935 3.44923 11.4349 3.42106 11.4805 3.40174C11.5262 3.38242 11.5752 3.37232 11.6248 3.37203C11.6744 3.37174 11.7235 3.38127 11.7694 3.40006C11.8153 3.41885 11.857 3.44653 11.8921 3.48152C11.9272 3.5165 11.9551 3.55809 11.9741 3.60389C11.9931 3.64969 12.0028 3.69879 12.0027 3.74837C12.0026 3.79795 11.9928 3.84702 11.9736 3.89276C11.9545 3.9385 11.9265 3.98 11.8913 4.01487L6.53138 9.40362C6.39676 9.54012 6.20963 9.62487 6.00263 9.62487H6.00001Z" />
    </symbol>
    <symbol id="content-draft" viewBox="0 0 16 16" xmlns="http://www.w3.org/2000/svg">
        <path d="M4.55005 12.2033C4.47484 12.203 4.40072 12.1854 4.33347 12.1517C4.26621 12.1181 4.20763 12.0694 4.1623 12.0093C4.11698 11.9493 4.08612 11.8797 4.07214 11.8058C4.05816 11.7319 4.06144 11.6558 4.08172 11.5833L4.73005 9.31667C4.75249 9.23726 4.79496 9.16495 4.85338 9.10667L9.48005 4.48C9.55517 4.40441 9.6445 4.34443 9.7429 4.30349C9.84129 4.26256 9.94681 4.24148 10.0534 4.24148C10.16 4.24148 10.2655 4.26256 10.3639 4.30349C10.4623 4.34443 10.5516 4.40441 10.6267 4.48L11.7934 5.64667C11.9447 5.79877 12.0297 6.0046 12.0297 6.21917C12.0297 6.43373 11.9447 6.63957 11.7934 6.79167L7.16672 11.4133C7.10748 11.4714 7.03474 11.5137 6.95505 11.5367L4.68338 12.1833C4.64016 12.1965 4.59523 12.2032 4.55005 12.2033ZM5.63005 9.705L5.25672 11.0083L6.56005 10.6367L10.9851 6.21167L10.0534 5.28167L5.63005 9.705Z" />
        <path d="M10.3767 8C10.313 8.00028 10.2498 7.98791 10.1908 7.96359C10.1319 7.93927 10.0784 7.90349 10.0334 7.85833L8.41505 6.23333C8.36633 6.18907 8.3271 6.13539 8.29972 6.07553C8.27235 6.01567 8.2574 5.95088 8.25578 5.88507C8.25416 5.81927 8.26591 5.75383 8.29032 5.69269C8.31472 5.63156 8.35127 5.57602 8.39776 5.52942C8.44425 5.48282 8.4997 5.44613 8.56077 5.42158C8.62185 5.39703 8.68726 5.38512 8.75307 5.38658C8.81888 5.38803 8.8837 5.40282 8.94363 5.43005C9.00356 5.45728 9.05734 5.49639 9.10172 5.545L10.72 7.16667C10.7653 7.21186 10.8011 7.26551 10.8256 7.32457C10.85 7.38362 10.8626 7.44691 10.8626 7.51083C10.8626 7.57475 10.85 7.63805 10.8256 7.6971C10.8011 7.75615 10.7653 7.80981 10.72 7.855C10.6753 7.90076 10.6219 7.93716 10.563 7.96205C10.504 7.98695 10.4407 7.99985 10.3767 8Z" />
        <path d="M6.81505 11.555C6.75132 11.5551 6.6882 11.5426 6.62928 11.5183C6.57037 11.494 6.51683 11.4583 6.47172 11.4133L4.85338 9.795C4.8083 9.74991 4.77253 9.69639 4.74813 9.63748C4.72373 9.57857 4.71117 9.51543 4.71117 9.45167C4.71117 9.3879 4.72373 9.32477 4.74813 9.26586C4.77253 9.20695 4.8083 9.15342 4.85338 9.10833C4.89847 9.06325 4.952 9.02748 5.01091 9.00308C5.06981 8.97868 5.13295 8.96612 5.19672 8.96612C5.26048 8.96612 5.32362 8.97868 5.38253 9.00308C5.44144 9.02748 5.49496 9.06325 5.54005 9.10833L7.16672 10.7267C7.23656 10.7943 7.28446 10.8814 7.3042 10.9766C7.32394 11.0718 7.31461 11.1707 7.27742 11.2606C7.24023 11.3504 7.17689 11.427 7.09563 11.4804C7.01437 11.5338 6.91894 11.5615 6.82172 11.56L6.81505 11.555Z" />
        <path d="M2.00001 16C1.46958 16 0.960867 15.7893 0.585795 15.4142C0.210722 15.0391 8.21321e-06 14.5304 8.21321e-06 14V2C-0.000747941 1.7368 0.050715 1.47607 0.151417 1.23289C0.25212 0.98972 0.400061 0.768939 0.586675 0.583333C0.96265 0.210454 1.47048 0.000852348 2.00001 4.02488e-08H11.5867C11.9841 -9.19668e-05 12.3654 0.15756 12.6467 0.438333L15.5617 3.35333C15.8424 3.63464 16.0001 4.01588 16 4.41333V14C16 14.5304 15.7893 15.0391 15.4142 15.4142C15.0391 15.7893 14.5304 16 14 16H2.00001ZM2.00001 1C1.73534 1.00087 1.48158 1.10561 1.29334 1.29167C1.20026 1.38464 1.12643 1.49506 1.0761 1.61661C1.02576 1.73815 0.999905 1.86844 1.00001 2V14C1.00001 14.2652 1.10537 14.5196 1.2929 14.7071C1.48044 14.8946 1.73479 15 2.00001 15H14C14.2652 15 14.5196 14.8946 14.7071 14.7071C14.8947 14.5196 15 14.2652 15 14V4.41333C14.9995 4.28135 14.9467 4.15494 14.8533 4.06167L11.94 1.14667C11.8463 1.05287 11.7192 1.00012 11.5867 1H2.00001Z" />
        <path d="M15.5 5H12.5C12.1022 5 11.7207 4.84197 11.4394 4.56066C11.1581 4.27936 11 3.89783 11 3.5V0.5C11 0.367392 11.0527 0.240215 11.1465 0.146447C11.2403 0.0526787 11.3674 2.41498e-07 11.5 2.41498e-07C11.6327 2.41498e-07 11.7598 0.0526787 11.8536 0.146447C11.9474 0.240215 12 0.367392 12 0.5V3.5C12 3.63261 12.0527 3.75979 12.1465 3.85355C12.2403 3.94732 12.3674 4 12.5 4H15.5C15.6327 4 15.7598 4.05268 15.8536 4.14645C15.9474 4.24022 16 4.36739 16 4.5C16 4.63261 15.9474 4.75979 15.8536 4.85355C15.7598 4.94732 15.6327 5 15.5 5Z" />
        <path d="M13.745 13.7667H12.8951V12.9167H13.745V13.7667Z" />
        <path d="M11.8067 13.7667H10.72V13.0667H11.8067V13.7667ZM9.63172 13.7667H8.54338V13.0667H9.63172V13.7667ZM7.46505 13.7667H6.36838V13.0667H7.45672L7.46505 13.7667ZM5.28838 13.7667H4.19338V13.0667H5.28005L5.28838 13.7667Z" />
        <path d="M3.12172 13.7667H2.25505V12.9167H3.12172V13.7667Z" />
        <path d="M3.12172 11.8233H2.25505V10.7317H3.12172V11.8233ZM3.12172 9.63833H2.25505V8.54667H3.12172V9.63833ZM3.12172 7.45333H2.25505V6.36167H3.12172V7.45333ZM3.12172 5.26833H2.25505V4.17667H3.12172V5.26833Z" />
        <path d="M2.25505 3.08333V2.23333H3.10505V3.08333H2.25505Z" />
        <path d="M11.8067 2.93333H10.72V2.23333H11.8067V2.93333ZM9.63172 2.93333H8.54338V2.23333H9.63172V2.93333ZM7.46505 2.93333H6.36838V2.23333H7.45672L7.46505 2.93333ZM5.28838 2.93333H4.19338V2.23333H5.28005L5.28838 2.93333Z" />
        <path d="M13.745 11.8233H13.045V10.7317H13.745V11.8233ZM13.745 9.63833H13.045V8.54667H13.745V9.63833ZM13.745 7.45333H13.045V6.36167H13.745V7.45333ZM13.745 5.26833H13.045V4.17667H13.745V5.26833Z" />
    </symbol>
    <symbol id="product" viewBox="0 0 17 16" xmlns="http://www.w3.org/2000/svg">
        <path d="M15.7483 4.501C15.7506 4.48173 15.7506 4.46227 15.7483 4.443V4.444L15.7488 4.4225C15.7488 4.415 15.7488 4.4075 15.7478 4.4V4.401C15.7445 4.38528 15.7403 4.36976 15.7353 4.3545L15.7363 4.3575C15.7363 4.341 15.7248 4.3225 15.7163 4.304V4.3V4.2955L14.063 0.802C13.9307 0.559522 13.7356 0.35711 13.4982 0.215999C13.2608 0.074888 12.9898 0.000279316 12.7136 0L12.6851 0.0005H12.6866H3.78726C3.50954 0.000474106 3.23697 0.0754386 2.99832 0.217479C2.75967 0.35952 2.56379 0.563367 2.43137 0.8075L2.42737 0.8155L0.795996 4.287V4.2955C0.795996 4.314 0.782497 4.332 0.775998 4.349C0.771425 4.36224 0.767751 4.37577 0.764999 4.3895L0.764499 4.392L0.763999 4.4135C0.763999 4.421 0.763999 4.4285 0.764999 4.436V4.435C0.757725 4.45556 0.752696 4.47685 0.75 4.4985V15.5C0.75 15.6326 0.802674 15.7598 0.896435 15.8536C0.990196 15.9473 1.11736 16 1.24996 16H15.2489C15.3815 16 15.5086 15.9473 15.6024 15.8536C15.6962 15.7598 15.7488 15.6326 15.7488 15.5V4.5L15.7483 4.501ZM12.6851 1.001L12.7131 1.0005C12.9005 1.0005 13.066 1.095 13.164 1.2395L13.165 1.2415L14.4614 4.0015H8.74837V1.0015L12.6851 1.001ZM3.3258 1.256C3.37694 1.17378 3.44918 1.10676 3.53499 1.06192C3.6208 1.01707 3.71706 0.996037 3.81376 1.001H3.81226H7.74845V4.001H2.0354L3.3258 1.256ZM14.7484 15.001H1.74942V5.001H14.7484V15.001ZM12.7486 13.001H9.7488C9.6162 13.001 9.48903 12.9483 9.39527 12.8546C9.30151 12.7608 9.24884 12.6336 9.24884 12.501C9.24884 12.3684 9.30151 12.2412 9.39527 12.1474C9.48903 12.0537 9.6162 12.001 9.7488 12.001H12.7486C12.8812 12.001 13.0083 12.0537 13.1021 12.1474C13.1958 12.2412 13.2485 12.3684 13.2485 12.501C13.2485 12.6336 13.1958 12.7608 13.1021 12.8546C13.0083 12.9483 12.8812 13.001 12.7486 13.001Z" />
    </symbol>
    <symbol id="cart" viewBox="0 0 17 16" xmlns="http://www.w3.org/2000/svg">
        <path d="M9.66643 16.0005C9.3038 16.0005 8.94931 15.893 8.64779 15.6915C8.34627 15.49 8.11127 15.2037 7.9725 14.8686C7.83372 14.5336 7.79741 14.165 7.86816 13.8093C7.93891 13.4536 8.11353 13.1269 8.36995 12.8705C8.62637 12.6141 8.95307 12.4395 9.30873 12.3687C9.66439 12.298 10.033 12.3343 10.3681 12.4731C10.7031 12.6118 10.9895 12.8468 11.1909 13.1483C11.3924 13.4499 11.4999 13.8044 11.4999 14.167C11.4999 14.6533 11.3068 15.1196 10.9629 15.4635C10.6191 15.8073 10.1527 16.0005 9.66643 16.0005ZM9.66643 13.334C9.50158 13.334 9.34043 13.3829 9.20336 13.4745C9.06629 13.566 8.95946 13.6962 8.89637 13.8485C8.83329 14.0008 8.81678 14.1684 8.84894 14.3301C8.8811 14.4918 8.96049 14.6403 9.07705 14.7569C9.19362 14.8734 9.34214 14.9528 9.50382 14.985C9.6655 15.0171 9.83309 15.0006 9.9854 14.9375C10.1377 14.8745 10.2679 14.7676 10.3595 14.6306C10.451 14.4935 10.4999 14.3323 10.4999 14.1675C10.4999 13.7075 10.1269 13.334 9.66643 13.334ZM4.66643 16.0005C4.3038 16.0005 3.94931 15.893 3.64779 15.6915C3.34627 15.49 3.11127 15.2037 2.9725 14.8686C2.83372 14.5336 2.79741 14.165 2.86816 13.8093C2.93891 13.4536 3.11353 13.1269 3.36995 12.8705C3.62637 12.6141 3.95307 12.4395 4.30873 12.3687C4.66439 12.298 5.03305 12.3343 5.36808 12.4731C5.70311 12.6118 5.98946 12.8468 6.19093 13.1483C6.3924 13.4499 6.49993 13.8044 6.49993 14.167C6.49993 14.6533 6.30676 15.1196 5.96291 15.4635C5.61906 15.8073 5.1527 16.0005 4.66643 16.0005ZM4.66643 13.334C4.50158 13.334 4.34043 13.3829 4.20336 13.4745C4.06629 13.566 3.95946 13.6962 3.89638 13.8485C3.83329 14.0008 3.81678 14.1684 3.84894 14.3301C3.88111 14.4918 3.96049 14.6403 4.07706 14.7569C4.19362 14.8734 4.34214 14.9528 4.50382 14.985C4.6655 15.0171 4.83309 15.0006 4.9854 14.9375C5.1377 14.8745 5.26787 14.7676 5.35946 14.6306C5.45105 14.4935 5.49993 14.3323 5.49993 14.1675C5.49993 13.7075 5.12693 13.334 4.66643 13.334ZM12.1814 10.217L14.3479 2.08048C14.4039 1.86809 14.5282 1.67998 14.7015 1.5451C14.8749 1.41022 15.0878 1.33604 15.3074 1.33398H15.9994C16.132 1.33398 16.2592 1.28131 16.353 1.18754C16.4467 1.09377 16.4994 0.966593 16.4994 0.833984C16.4994 0.701376 16.4467 0.574199 16.353 0.480431C16.2592 0.386663 16.132 0.333984 15.9994 0.333984H15.3079C14.8689 0.334182 14.442 0.478791 14.0933 0.745521C13.7445 1.01225 13.4931 1.38629 13.3779 1.80998L13.3749 1.82398L11.2084 9.96048C11.1509 10.175 10.9599 10.3305 10.7319 10.334H3.51843C3.40612 10.3339 3.2971 10.2961 3.20894 10.2265C3.12077 10.1569 3.0586 10.0597 3.03243 9.95048L3.03193 9.94698L1.48043 4.66698C1.46162 4.60402 1.43059 4.54537 1.38911 4.49439C1.34763 4.44342 1.29652 4.40111 1.23869 4.36988C1.18087 4.33866 1.11745 4.31913 1.05208 4.31241C0.986705 4.3057 0.920648 4.31192 0.857679 4.33073C0.79471 4.34955 0.736063 4.38058 0.685086 4.42205C0.63411 4.46353 0.591802 4.51464 0.560578 4.57247C0.529354 4.6303 0.509827 4.69371 0.503109 4.75908C0.496392 4.82446 0.502617 4.89052 0.521429 4.95348L0.520429 4.94998L2.07043 10.215C2.15513 10.5347 2.34292 10.8176 2.6047 11.0199C2.86648 11.2221 3.18765 11.3323 3.51843 11.3335H10.7319C11.0611 11.3334 11.3811 11.225 11.6426 11.0252C11.9042 10.8253 12.0928 10.545 12.1794 10.2275L12.1819 10.217H12.1814Z" />
    </symbol>
    <symbol id="profile" viewBox="0 0 17 16" xmlns="http://www.w3.org/2000/svg">
        <path d="M8.25007 11.9976C10.4218 11.9976 12.4057 13.2286 13.3701 15.1744C13.5102 15.4572 13.3946 15.8 13.1118 15.9402C12.829 16.0803 12.4862 15.9647 12.3461 15.6819C11.5746 14.1253 9.98741 13.1405 8.25007 13.1405C6.51273 13.1405 4.92555 14.1253 4.15407 15.6819C4.01393 15.9647 3.6711 16.0803 3.38833 15.9402C3.10556 15.8 2.98993 15.4572 3.13007 15.1744C4.09441 13.2286 6.07839 11.9976 8.25007 11.9976ZM13.4625 2.02738C16.4117 4.73056 16.8051 9.23979 14.3684 12.4128C14.1762 12.6631 13.8175 12.7102 13.5672 12.518C13.3169 12.3257 13.2698 11.967 13.462 11.7167C15.5377 9.01379 15.2026 5.17259 12.6903 2.86989C10.178 0.56718 6.32218 0.56718 3.80986 2.86989C1.29754 5.17259 0.962468 9.01379 3.03814 11.7167C3.23036 11.967 3.18327 12.3257 2.93297 12.518C2.68266 12.7102 2.32393 12.6631 2.13172 12.4128C-0.304942 9.23979 0.0884042 4.73056 3.03765 2.02738C5.98689 -0.675795 10.5132 -0.675795 13.4625 2.02738ZM8.25007 4.57104C9.98582 4.57104 11.3929 5.97814 11.3929 7.7139C11.3929 9.44965 9.98582 10.8568 8.25007 10.8568C6.51432 10.8568 5.10721 9.44965 5.10721 7.7139C5.10721 5.97814 6.51432 4.57104 8.25007 4.57104ZM8.25007 5.7139C7.1455 5.7139 6.25007 6.60933 6.25007 7.7139C6.25007 8.81847 7.1455 9.71389 8.25007 9.71389C9.35464 9.71389 10.2501 8.81847 10.2501 7.7139C10.2501 6.60933 9.35464 5.7139 8.25007 5.7139Z" />
    </symbol>
    <symbol id="search" viewBox="0 0 16 16" xmlns="http://www.w3.org/2000/svg">
        <path d="M15.805 14.861L11.2585 10.3145C12.1355 9.23652 12.6665 7.84652 12.6665 6.33252C12.6665 2.83452 9.83101 -0.000976562 6.33301 -0.000976562C2.83501 -0.000976562 -0.000488281 2.83452 -0.000488281 6.33252C-0.000488281 9.83052 2.83501 12.666 6.33301 12.666C7.84701 12.666 9.23701 12.135 10.3265 11.2485L10.315 11.2575L14.8615 15.804C14.982 15.9245 15.149 15.9995 15.333 15.9995C15.7015 15.9995 16 15.701 16 15.3325C16 15.1485 15.9255 14.9815 15.8045 14.861V14.861H15.805ZM1.33351 6.33302C1.33351 6.33252 1.33351 6.33202 1.33351 6.33102C1.33351 3.56952 3.57201 1.33102 6.33351 1.33102C9.09501 1.33102 11.3335 3.56952 11.3335 6.33102C11.3335 7.68452 10.796 8.91202 9.92251 9.81252L9.92351 9.81102C9.90351 9.82752 9.88201 9.84252 9.86201 9.86102C9.84501 9.87952 9.82851 9.89952 9.81351 9.92102L9.81201 9.92302C8.91301 10.794 7.68601 11.331 6.33351 11.331C3.57251 11.331 1.33451 9.09352 1.33351 6.33302V6.33302V6.33302Z" fill="white" />
    </symbol>
</svg>